<svg viewBox="0 0 1024 1024" width="200" height="200" xmlns="http://www.w3.org/2000/svg">
  <rect x="0" y="0" width="1024" height="1024" fill="#f0f0f0"></rect>
  <text x="512" y="512" font-family="Arial, Helvetica, sans-serif" dominant-baseline="middle" text-anchor="middle" fill="#262626" font-size="980" transform="translate(0, 90)">D</text>
  <g transform="translate(560, 560) scale(0.4) ">
    <path d="M190.72 153.6H808.96q88.32 0 88.32 88.32v441.6512q0 88.32-88.32 88.32H190.72q-88.32 0-88.32-88.32V241.92Q102.4 153.6 190.72 153.6z" fill="#94BEFB" fill-opacity="0.9"></path>
    <path d="M190.72 153.6H808.96a88.32 88.32 0 0 1 88.32 88.32v110.5152H102.4V242.0224a88.32 88.32 0 0 1 88.32-88.32z" fill="#5479DF"></path>
    <path d="M576.7168 252.9792a33.1264 33.1264 0 1 0 33.1264-33.1264 33.1264 33.1264 0 0 0-33.1264 33.1264z" fill="#FFFFFF"></path>
    <path d="M702.1568 252.9792a33.1264 33.1264 0 1 0 33.1264-33.1264 33.1264 33.1264 0 0 0-33.1264 33.1264z" fill="#FFFFFF"></path>
    <path d="M766.5664 754.816a64 64 0 1 1 63.7184-63.7184 63.4368 63.4368 0 0 1-63.7184 63.7184z m171.3152-19.8144l58.88-12.8v-63.232l-58.88-12.2624a173.6192 173.6192 0 0 0-18.8672-45.312l32.5632-50.5088-44.8256-44.8256-50.5088 32.5632a191.5136 191.5136 0 0 0-45.312-18.8672l-12.2624-58.88h-63.232l-12.2624 58.88a191.4624 191.4624 0 0 0-45.312 18.8672l-50.5088-32.5632-44.8256 44.8256 33.0496 50.5088a173.568 173.568 0 0 0-18.8672 45.312l-58.88 12.2624v63.232l58.88 12.8a191.36 191.36 0 0 0 18.8672 45.312l-33.0496 50.5088 44.8256 44.8256 50.5088-33.024a173.6704 173.6704 0 0 0 45.312 18.8672l12.2624 58.88h63.232l12.2624-58.88a173.696 173.696 0 0 0 45.312-18.8672l50.5088 33.024 44.8256-44.8256-32.5632-50.9696a180.2752 180.2752 0 0 0 18.7904-44.8512z" fill="#5479DF"></path>
    <path d="M766.464 584.9344a105.728 105.728 0 1 0 105.728 105.728 105.5488 105.5488 0 0 0-105.728-105.728" fill="#020202" fill-opacity="0.2"></path>
    <path d="M766.4896 754.8416a64 64 0 1 1 63.7184-63.7184 63.4368 63.4368 0 0 1-63.7184 63.7184" fill="#E8EAE9"></path>
  </g>
</svg>
